<?xml version="1.0" encoding="utf-8"?>
<svg id="Layer_1" data-name="Layer 1" viewBox="0 0 254.62123107910156 73.6500015258789" xmlns="http://www.w3.org/2000/svg">
  <defs>
    <style>.cls-1{font-size:40.3px;font-family:Interstate;}.cls-1,.cls-4{fill:#848484;}.cls-2{letter-spacing:-3px;}.cls-3{letter-spacing:-2px;}.cls-4{font-size:35.99px;font-family:Montserrat;font-weight:700;}.cls-5{fill:#019f3e;}.cls-6{fill:#f4c302;}.cls-7{fill:#df0223;}.cls-8{fill:#0285c7;}</style>
  </defs>
  <title>FantasyOlympian-Logo-</title>
  <text class="cls-1" transform="translate(76.64 34.26)" style="white-space: pre;"><tspan class="cls-2">F</tspan><tspan x="18.66" y="0">AN</tspan><tspan class="cls-2" x="73.72" y="0">T</tspan><tspan x="94.36" y="0">A</tspan><tspan class="cls-3" x="121.28" y="0">S</tspan><tspan x="143.04" y="0">Y</tspan></text>
  <text class="cls-4" transform="translate(76.64 64.66)" style="white-space: pre;">olympian</text>
  <polygon class="cls-5" points="16.99 69.08 52.52 69.08 48.02 61.3 21.48 61.3 16.99 69.08"/>
  <polygon class="cls-6" points="0 30.92 10.98 64.71 17 58.02 8.8 32.79 0 30.92"/>
  <polygon class="cls-7" points="58.53 64.71 69.5 30.92 60.7 32.79 52.5 58.02 58.53 64.71"/>
  <polygon points="67.21 23.86 38.47 2.98 37.52 11.95 58.97 27.53 67.21 23.86"/>
  <polygon class="cls-8" points="31.04 2.98 2.29 23.86 10.54 27.53 31.98 11.95 31.04 2.98"/>
</svg>